<?xml version="1.0" standalone="no"?>
<!DOCTYPE svg PUBLIC "-//W3C//DTD SVG 20010904//EN"
 "http://www.w3.org/TR/2001/REC-SVG-20010904/DTD/svg10.dtd">
<svg version="1.0" xmlns="http://www.w3.org/2000/svg"
 width="293.000000pt" height="293.000000pt" viewBox="0 0 293.000000 293.000000"
 preserveAspectRatio="xMidYMid meet">
<metadata>
Created by potrace 1.11, written by Peter Selinger 2001-2013
</metadata>
<g transform="translate(0.000000,293.000000) scale(0.100000,-0.100000)"
fill="#000000" stroke="none">
<path d="M1175 2653 c-308 -21 -600 -80 -761 -153 -180 -81 -265 -202 -235
-335 26 -115 171 -279 388 -439 65 -47 221 -160 346 -252 l228 -166 -26 -23
c-14 -14 -25 -35 -25 -50 0 -32 33 -65 65 -65 28 0 65 32 65 55 0 18 9 19 33
1 22 -17 22 -22 -3 -29 -29 -8 -46 -51 -32 -82 27 -58 107 -53 119 7 6 32 23
28 23 -5 0 -36 28 -67 60 -67 21 0 38 -11 65 -42 77 -90 105 -201 71 -282 -31
-75 -131 -143 -271 -185 -68 -20 -229 -51 -266 -51 -18 0 -18 1 1 20 11 11 20
31 20 45 0 30 -32 65 -59 65 -30 0 -63 -33 -63 -63 0 -31 17 -55 47 -67 16 -7
13 -9 -16 -9 -20 -1 -50 6 -66 14 -25 13 -36 13 -57 4 -14 -7 -26 -16 -26 -21
0 -4 -10 -8 -22 -8 -20 0 -20 1 -5 18 25 28 21 67 -10 91 -30 24 -58 20 -85
-11 -25 -28 -22 -55 7 -83 l24 -25 -142 -1 c-78 0 -238 -2 -354 -2 l-213 -2 0
-88 0 -87 362 1 c380 2 534 9 733 34 276 36 541 107 681 185 209 115 279 274
195 443 -37 77 -149 200 -251 278 l-69 53 25 22 c13 13 24 34 24 49 0 29 -32
65 -58 65 -30 0 -62 -29 -62 -56 l0 -25 -30 21 c-30 21 -30 22 -11 38 36 31
27 97 -14 108 -39 10 -59 1 -76 -33 -18 -36 -29 -33 -29 7 0 38 -31 64 -72 58
-29 -5 -54 10 -238 141 -342 244 -494 414 -492 547 2 153 210 242 607 259 71
4 164 8 205 10 41 2 141 4 223 4 l147 1 0 86 0 85 -292 -3 c-161 -1 -311 -4
-333 -5z"/>
<path d="M1873 2647 c2 -6 19 -57 36 -112 49 -150 262 -807 268 -821 2 -6 -7
-14 -21 -18 -14 -3 -33 -18 -42 -31 -34 -52 23 -113 80 -87 22 10 24 6 51 -79
16 -49 31 -89 34 -90 23 -4 234 -3 240 1 4 3 43 118 88 255 45 138 134 412
199 610 64 198 119 366 122 373 3 9 -24 12 -116 12 -67 0 -123 -4 -126 -9 -3
-4 -65 -206 -137 -447 -72 -242 -134 -445 -138 -452 -6 -10 -152 444 -273 846
l-19 62 -126 0 c-96 0 -124 -3 -120 -13z"/>
<path d="M1737 1779 c-42 -25 -37 -104 8 -115 36 -9 58 -1 74 27 19 34 8 73
-24 87 -31 14 -35 14 -58 1z"/>
<path d="M2030 1762 c-49 -16 -66 -74 -32 -105 23 -21 66 -22 86 -1 17 16 21
61 8 80 -11 17 -46 32 -62 26z"/>
<path d="M1872 1710 c-30 -13 -46 -54 -31 -83 16 -29 28 -37 60 -37 58 0 79
73 33 109 -30 23 -30 23 -62 11z"/>
<path d="M1590 1680 c-41 -41 -14 -110 42 -110 55 0 81 83 36 114 -30 21 -54
20 -78 -4z"/>
<path d="M1426 1661 c-26 -29 -18 -82 17 -101 24 -13 30 -13 55 0 55 31 34
120 -28 120 -15 0 -35 -9 -44 -19z"/>
<path d="M1730 1620 c-27 -27 -25 -62 4 -89 30 -28 68 -23 92 14 40 61 -44
127 -96 75z"/>
<path d="M2016 1591 c-24 -27 -17 -70 16 -94 23 -17 31 -19 53 -9 46 21 52 87
11 114 -21 14 -63 8 -80 -11z"/>
<path d="M1605 1538 c-27 -15 -35 -28 -35 -59 0 -32 28 -59 63 -59 58 0 81 73
35 113 -23 20 -35 21 -63 5z"/>
<path d="M1885 1525 c-29 -28 -31 -51 -9 -83 29 -42 97 -24 109 30 5 21 1 33
-19 52 -31 32 -50 33 -81 1z"/>
<path d="M2140 1500 c-11 -11 -20 -30 -20 -43 0 -31 35 -67 65 -67 24 0 65 41
65 65 0 7 -9 24 -21 39 -25 31 -61 34 -89 6z"/>
<path d="M1727 1478 c-9 -7 -19 -25 -22 -40 -5 -21 -1 -33 19 -52 31 -31 45
-32 80 -5 29 23 33 54 10 87 -17 25 -60 30 -87 10z"/>
<path d="M1997 1442 c-23 -25 -21 -68 3 -92 39 -39 100 -12 100 44 0 58 -66
89 -103 48z"/>
<path d="M1831 1374 c-12 -15 -21 -32 -21 -39 0 -24 41 -65 66 -65 31 0 64 33
64 65 0 30 -36 65 -66 65 -12 0 -32 -12 -43 -26z"/>
<path d="M1036 1145 c-24 -25 -29 -54 -12 -80 23 -34 53 -41 85 -18 32 24 38
56 17 89 -19 28 -66 33 -90 9z"/>
<path d="M1203 1049 c-48 -18 -52 -86 -7 -115 40 -27 94 5 94 55 0 44 -46 75
-87 60z"/>
<path d="M1026 978 c-22 -30 -20 -60 4 -86 26 -27 64 -28 90 -2 41 41 13 110
-45 110 -24 0 -39 -7 -49 -22z"/>
<path d="M1155 855 c-44 -43 -21 -105 39 -105 60 0 88 68 46 110 -27 27 -56
25 -85 -5z"/>
<path d="M960 800 c-44 -44 -7 -117 54 -107 31 5 33 3 33 -24 0 -39 24 -62 63
-61 37 1 59 25 60 64 0 45 -51 79 -88 59 -16 -9 -18 -6 -14 17 8 58 -66 94
-108 52z"/>
<path d="M817 702 c-26 -28 -22 -78 7 -98 68 -44 137 44 80 101 -21 21 -67 19
-87 -3z"/>
</g>
</svg>
